<?xml version="1.0" encoding="UTF-8"?>
<svg id="Capa_1" data-name="Capa 1" xmlns="http://www.w3.org/2000/svg" viewBox="0 0 1366 768">
  <defs>
    <style>
      .cls-1 {
        stroke: #2b2d42;
      }

      .cls-1, .cls-2, .cls-3, .cls-4 {
        opacity: .47;
      }

      .cls-1, .cls-4 {
        fill: none;
        stroke-miterlimit: 10;
      }

      .cls-2 {
        fill: #8d99ae;
      }

      .cls-5 {
        fill: #edf2f4;
      }

      .cls-3 {
        fill: #2b2d42;
      }

      .cls-4 {
        stroke: #8d99ae;
        stroke-width: 3px;
      }
    </style>
  </defs>
  <rect class="cls-5" width="1366" height="768"/>
  <polygon class="cls-2" points="223.34 329.83 218.63 325.12 224.31 319.44 224.33 319.45 226.01 317.77 225.99 317.76 226.01 317.74 223.13 314.86 223.11 314.88 209.75 301.51 208.07 303.19 221.43 316.56 215.75 322.24 213.56 324.43 213.26 324.73 220.85 332.32 217.01 336.17 219.74 338.9 223.58 335.06 226.07 332.56 223.34 329.83"/>
  <polygon class="cls-3" points="185.7 191.29 186.11 197.93 178.08 198.43 178.08 198.41 175.71 198.55 175.71 198.57 175.69 198.58 175.94 202.64 175.96 202.64 177.12 221.51 179.49 221.36 178.33 202.49 186.36 202 189.45 201.81 189.87 201.78 189.22 191.07 194.64 190.74 194.4 186.88 188.98 187.22 185.46 187.43 185.7 191.29"/>
  <polygon class="cls-3" points="567.37 239.11 564.29 245.02 557.16 241.3 557.17 241.28 555.06 240.18 555.05 240.2 555.03 240.19 553.15 243.8 553.17 243.81 544.43 260.57 546.53 261.67 555.28 244.91 562.4 248.63 565.15 250.06 565.53 250.26 570.49 240.74 575.31 243.25 577.09 239.83 572.28 237.32 569.15 235.69 567.37 239.11"/>
  <polygon class="cls-2" points="373.64 403.94 366.98 403.94 366.98 395.9 367 395.9 367 393.52 366.98 393.52 366.98 393.5 362.9 393.5 362.9 393.52 344 393.52 344 395.9 362.9 395.9 362.9 403.94 362.9 407.04 362.9 407.46 373.64 407.46 373.64 412.89 377.5 412.89 377.5 407.46 377.5 403.94 373.64 403.94"/>
  <polygon class="cls-2" points="585.31 507.39 590.43 511.65 585.3 517.83 585.28 517.82 583.76 519.65 583.78 519.66 583.77 519.68 586.9 522.28 586.91 522.26 601.46 534.34 602.98 532.51 588.43 520.44 593.57 514.25 595.55 511.87 595.82 511.54 587.56 504.68 591.03 500.5 588.05 498.04 584.59 502.22 582.34 504.93 585.31 507.39"/>
  <polygon class="cls-2" points="1184.31 621.39 1189.43 625.65 1184.3 631.83 1184.28 631.82 1182.76 633.65 1182.78 633.66 1182.77 633.68 1185.9 636.28 1185.91 636.26 1200.46 648.34 1201.98 646.51 1187.43 634.44 1192.57 628.25 1194.55 625.87 1194.82 625.54 1186.56 618.68 1190.03 614.5 1187.05 612.04 1183.59 616.22 1181.34 618.93 1184.31 621.39"/>
  <polygon class="cls-2" points="1083.26 166.08 1089 162.71 1093.08 169.64 1093.06 169.65 1094.26 171.7 1094.28 171.69 1094.29 171.71 1097.8 169.65 1097.79 169.63 1114.09 160.06 1112.89 158.01 1096.59 167.58 1092.52 160.65 1090.95 157.97 1090.73 157.61 1081.48 163.04 1078.73 158.36 1075.4 160.31 1078.15 165 1079.93 168.04 1083.26 166.08"/>
  <polygon class="cls-2" points="1186.74 335.1 1183.81 329.12 1191.04 325.59 1191.05 325.61 1193.18 324.57 1193.18 324.55 1193.19 324.54 1191.41 320.88 1191.39 320.89 1183.1 303.9 1180.96 304.94 1189.25 321.93 1182.03 325.46 1179.24 326.82 1178.86 327 1183.57 336.65 1178.69 339.03 1180.38 342.5 1185.26 340.12 1188.43 338.57 1186.74 335.1"/>
  <polygon class="cls-2" points="1007.92 418.68 1011.27 424.44 1004.31 428.47 1004.3 428.46 1002.25 429.65 1002.26 429.67 1002.24 429.68 1004.28 433.2 1004.3 433.19 1013.79 449.54 1015.85 448.35 1006.36 432 1013.31 427.96 1015.99 426.41 1016.36 426.19 1010.97 416.91 1015.66 414.18 1013.73 410.84 1009.03 413.57 1005.98 415.34 1007.92 418.68"/>
  <polygon class="cls-2" points="951.72 651.51 958.06 653.57 955.57 661.21 955.55 661.21 954.82 663.47 954.84 663.47 954.83 663.49 958.71 664.75 958.71 664.73 976.69 670.57 977.43 668.31 959.45 662.47 961.93 654.82 962.89 651.88 963.02 651.47 952.81 648.16 954.49 642.99 950.82 641.8 949.14 646.96 948.05 650.31 951.72 651.51"/>
  <polygon class="cls-2" points="746.15 84.27 752.48 86.33 756.22 74.84 756.2 74.84 757.3 71.44 757.32 71.45 757.33 71.42 761.2 72.67 761.19 72.71 779.17 78.55 778.07 81.94 760.09 76.1 756.36 87.59 754.92 92.02 754.72 92.62 744.51 89.31 741.99 97.07 738.32 95.88 740.84 88.11 742.47 83.08 746.15 84.27"/>
  <polygon class="cls-2" points="442.15 84.27 448.48 86.33 452.22 74.84 452.2 74.84 453.3 71.44 453.32 71.45 453.33 71.42 457.2 72.67 457.19 72.71 475.17 78.55 474.07 81.94 456.09 76.1 452.36 87.59 450.92 92.02 450.72 92.62 440.51 89.31 437.99 97.07 434.32 95.88 436.84 88.11 438.47 83.08 442.15 84.27"/>
  <polygon class="cls-3" points="232.23 566.1 231.6 559.46 239.61 558.7 239.61 558.72 241.97 558.5 241.97 558.48 241.99 558.48 241.61 554.42 241.59 554.42 239.79 535.6 237.43 535.83 239.22 554.65 231.21 555.41 228.13 555.7 227.71 555.74 228.73 566.43 223.32 566.95 223.69 570.79 229.09 570.27 232.6 569.94 232.23 566.1"/>
  <polygon class="cls-2" points="403.64 420.94 396.98 420.94 396.98 412.9 397 412.9 397 410.52 396.98 410.52 396.98 410.5 392.9 410.5 392.9 410.52 374 410.52 374 412.9 392.9 412.9 392.9 420.94 392.9 424.04 392.9 424.46 403.64 424.46 403.64 429.89 407.5 429.89 407.5 424.46 407.5 420.94 403.64 420.94"/>
  <circle class="cls-1" cx="705.25" cy="352.25" r="13.75"/>
  <circle class="cls-4" cx="845.25" cy="255.25" r="13.75"/>
  <circle class="cls-1" cx="1081.25" cy="85.25" r="13.75"/>
  <rect class="cls-2" x="120" y="53" width="7" height="429"/>
  <rect class="cls-2" x="332.5" y="87.5" width="7" height="429" transform="translate(196.02 -127.54) rotate(30)"/>
  <rect class="cls-3" x="1077.5" y="356.5" width="7" height="429" transform="translate(430.33 -464) rotate(30)"/>
</svg>